<svg xmlns="http://www.w3.org/2000/svg" width="1920" height="1349" viewBox="0 0 1920 1349">
  <g id="SERVICES" transform="translate(0 -1751)">
    <rect id="background" width="1920" height="1349" transform="translate(0 1751)" fill="#f7f7f7"/>
    <g id="Box_service_6" data-name="Box service 6" transform="translate(1215 2514)">
      <rect id="box_background" data-name="box background" width="450" height="436" rx="10" fill="#fff"/>
      <text id="Effective_protection" data-name="Effective protection" transform="translate(225 260)" fill="#363636" font-size="22" font-family="RobotoSlab-Regular, Roboto Slab"><tspan x="-102.851" y="0">Effective protection</tspan></text>
      <text id="The_cheapest_tooth_protection_is_their_cleaning_and_a_regular_visit_to_the_dentist." data-name="The cheapest tooth protection
is their cleaning and a regular
visit to the dentist." transform="translate(50 286)" fill="#626262" font-size="18" font-family="Roboto-Regular, Roboto"><tspan x="54.695" y="19">The cheapest tooth protection</tspan><tspan x="57.635" y="47">is their cleaning and a regular</tspan><tspan x="101.475" y="75">visit to the dentist.</tspan></text>
      <circle id="icon_background" data-name="icon background" cx="60" cy="60" r="60" transform="translate(165 70)" fill="#25e6c8"/>
      <g id="Group_57" data-name="Group 57" transform="translate(-195.945 -167.64)">
        <g id="Group_36" data-name="Group 36">
          <g id="Group_35" data-name="Group 35">
            <path id="Path_30" data-name="Path 30" d="M444.945,274.641h-3.6a32.388,32.388,0,0,1-19.786-6.79,1,1,0,0,0-1.229,0,32.383,32.383,0,0,1-19.785,6.79h-3.6a1,1,0,0,0-1,1v10.7a46.782,46.782,0,0,0,24.523,41.18,1,1,0,0,0,.954,0,46.783,46.783,0,0,0,24.523-41.175v-10.7A1,1,0,0,0,444.945,274.641Zm-1,11.7a44.786,44.786,0,0,1-23,39.16,44.782,44.782,0,0,1-23-39.155v-9.7h2.6a34.394,34.394,0,0,0,20.4-6.744,34.394,34.394,0,0,0,20.4,6.744h2.6v9.7Z" fill="#fff"/>
          </g>
        </g>
        <g id="Group_38" data-name="Group 38">
          <g id="Group_37" data-name="Group 37">
            <path id="Path_31" data-name="Path 31" d="M429.64,277.645a9.3,9.3,0,0,0-3.653.75,12.856,12.856,0,0,1-10.083,0,9.3,9.3,0,0,0-12.959,8.545,16.764,16.764,0,0,0,1.762,7.463l2.281,4.562,2.528,13.475a3.919,3.919,0,0,0,7.741-.237l1.308-10.463a2.4,2.4,0,0,1,4.761,0l1.307,10.465a3.918,3.918,0,0,0,7.74.239l2.53-13.483,2.28-4.561a16.8,16.8,0,0,0,1.763-7.46A9.3,9.3,0,0,0,429.64,277.645Zm5.754,15.861v0L433.05,298.2a.933.933,0,0,0-.087.261l-2.553,13.621a1.919,1.919,0,0,1-3.792-.118l-1.309-10.467a4.4,4.4,0,0,0-8.729,0l-1.308,10.464a1.919,1.919,0,0,1-3.791.118l-2.554-13.621a1.014,1.014,0,0,0-.087-.261l-2.344-4.688a14.758,14.758,0,0,1-1.551-6.565,7.3,7.3,0,0,1,10.172-6.711,14.846,14.846,0,0,0,11.656,0,7.3,7.3,0,0,1,10.172,6.711A14.746,14.746,0,0,1,435.394,293.506Z" fill="#fff"/>
          </g>
        </g>
        <g id="Group_40" data-name="Group 40">
          <g id="Group_39" data-name="Group 39">
            <path id="Path_32" data-name="Path 32" d="M410.39,281.809a7.719,7.719,0,0,0-3.445,6.437v1.395h2v-1.395a5.725,5.725,0,0,1,2.554-4.773Z" fill="#fff"/>
          </g>
        </g>
        <g id="Group_42" data-name="Group 42">
          <g id="Group_41" data-name="Group 41">
            <rect id="Rectangle_8" data-name="Rectangle 8" width="2" height="1.999" transform="translate(419.945 274.641)" fill="#fff"/>
          </g>
        </g>
        <g id="Group_44" data-name="Group 44">
          <g id="Group_43" data-name="Group 43">
            <rect id="Rectangle_9" data-name="Rectangle 9" width="2" height="2" transform="translate(439.945 278.641)" fill="#fff"/>
          </g>
        </g>
        <g id="Group_46" data-name="Group 46">
          <g id="Group_45" data-name="Group 45">
            <rect id="Rectangle_10" data-name="Rectangle 10" width="2" height="2" transform="translate(399.945 278.641)" fill="#fff"/>
          </g>
        </g>
        <g id="Group_48" data-name="Group 48">
          <g id="Group_47" data-name="Group 47">
            <rect id="Rectangle_11" data-name="Rectangle 11" width="2" height="2.001" transform="translate(435.945 304.64)" fill="#fff"/>
          </g>
        </g>
        <g id="Group_50" data-name="Group 50">
          <g id="Group_49" data-name="Group 49">
            <rect id="Rectangle_12" data-name="Rectangle 12" width="2" height="2" transform="translate(400.945 292.641)" fill="#fff"/>
          </g>
        </g>
        <g id="Group_52" data-name="Group 52">
          <g id="Group_51" data-name="Group 51">
            <rect id="Rectangle_13" data-name="Rectangle 13" width="2" height="2" transform="translate(419.945 319.641)" fill="#fff"/>
          </g>
        </g>
        <g id="Group_54" data-name="Group 54">
          <g id="Group_53" data-name="Group 53">
            <rect id="Rectangle_14" data-name="Rectangle 14" width="2" height="2" transform="translate(438.945 292.641)" fill="#fff"/>
          </g>
        </g>
        <g id="Group_56" data-name="Group 56">
          <g id="Group_55" data-name="Group 55">
            <rect id="Rectangle_15" data-name="Rectangle 15" width="2" height="2.001" transform="translate(403.945 304.64)" fill="#fff"/>
          </g>
        </g>
      </g>
    </g>
    <g id="Box_service_5" data-name="Box service 5" transform="translate(735 2514)">
      <rect id="box_background-2" data-name="box background" width="450" height="436" rx="10" fill="#fff"/>
      <text id="Dental_implants" data-name="Dental implants" transform="translate(225 260)" fill="#363636" font-size="22" font-family="RobotoSlab-Regular, Roboto Slab"><tspan x="-83.751" y="0">Dental implants</tspan></text>
      <text id="The_best_solution_when_you_can_not_save_a_healthy_tooth_and_you_need_to_apply_artificial_solutions." data-name="The best solution when you can not save
a healthy tooth and you need to apply artificial solutions." transform="translate(50 286)" fill="#626262" font-size="18" font-family="Roboto-Regular, Roboto"><tspan x="12.754" y="19">The best solution when you can not save</tspan><tspan x="26.245" y="47">a healthy tooth and you need to apply </tspan><tspan x="101.378" y="75">artificial solutions.</tspan></text>
      <circle id="icon_background-2" data-name="icon background" cx="60" cy="60" r="60" transform="translate(165 70)" fill="#25e6c8"/>
      <g id="Group_34" data-name="Group 34" transform="translate(-195.945 -167.641)">
        <g id="Group_31" data-name="Group 31">
          <g id="Group_30" data-name="Group 30">
            <path id="Path_28" data-name="Path 28" d="M429.645,267.641a9.241,9.241,0,0,0-3.662.751,12.845,12.845,0,0,1-10.082,0,9.3,9.3,0,0,0-12.956,8.548,25.27,25.27,0,0,0,2.616,11.171l1.425,4.816a1,1,0,0,0,.959.713h3v5a1,1,0,0,0,1,1h3v2.327l-2.89-.321-.22,1.988,3.11.346v3.987l-2.89-.321-.22,1.988,3.11.346v3.987l-2.89-.321-.22,1.988,3.11.346v3.987l-2.89-.321-.22,1.988,3.177.354v.023l2,5a1,1,0,0,0,.933.629h6a1,1,0,0,0,.928-.629l1.5-3.761,3.457.384.221-1.988-3.106-.346v-3.987l2.889.321.221-1.988-3.11-.346v-3.987l2.889.321.221-1.988-3.11-.346v-3.987l2.889.321.221-1.988-3.11-.346v-3.66h3a1,1,0,0,0,1-1v-5h3a1,1,0,0,0,.959-.716l1.425-4.816a25.3,25.3,0,0,0,2.616-11.168A9.306,9.306,0,0,0,429.645,267.641Zm-6.38,58h-4.643l-1.361-3.4,7.055.784Zm1.68-4.561-8-.89V316.2l8,.888Zm0-6-8-.89V310.2l8,.888Zm0-6-8-.89V304.2l8,.888Zm0-6-8-.89V299.64h8Zm4-5.439h-16v-4h16Zm5.554-10.347a1.194,1.194,0,0,0-.063.163l-1.238,4.185H408.692l-1.238-4.185a1.084,1.084,0,0,0-.064-.163,23.249,23.249,0,0,1-2.445-10.353,7.3,7.3,0,0,1,10.171-6.71,14.857,14.857,0,0,0,11.657,0,7.3,7.3,0,0,1,10.172,6.71A23.263,23.263,0,0,1,434.5,287.293Z" fill="#fff"/>
          </g>
        </g>
        <g id="Group_33" data-name="Group 33">
          <g id="Group_32" data-name="Group 32">
            <path id="Path_29" data-name="Path 29" d="M410.445,271.772a6.584,6.584,0,0,0-3.5,5.673v1.2h2v-1.2a4.611,4.611,0,0,1,2.5-3.937Z" fill="#fff"/>
          </g>
        </g>
      </g>
    </g>
    <g id="Box_service_4" data-name="Box service 4" transform="translate(255 2514)">
      <rect id="box_background-3" data-name="box background" width="450" height="436" rx="10" fill="#fff"/>
      <text id="Polishing_and_cleaning" data-name="Polishing and cleaning" transform="translate(225 260)" fill="#363636" font-size="22" font-family="RobotoSlab-Regular, Roboto Slab"><tspan x="-120.098" y="0">Polishing and cleaning</tspan></text>
      <text id="A_simple_and_safe_polishing_treatment_improves_the_health_of_teeth_that_will_get_a_better_look." data-name="A simple and safe polishing treatment improves the health of teeth that
will get a better look." transform="translate(50 286)" fill="#626262" font-size="18" font-family="Roboto-Regular, Roboto"><tspan x="23.411" y="19">A simple and safe polishing treatment </tspan><tspan x="45.216" y="47">improves the health of teeth that</tspan><tspan x="92.229" y="75">will get a better look.</tspan></text>
      <circle id="icon_background-3" data-name="icon background" cx="60" cy="60" r="60" transform="translate(165 70)" fill="#25e6c8"/>
      <g id="Group_29" data-name="Group 29" transform="translate(-195.945 -167.64)">
        <g id="Group_18" data-name="Group 18">
          <g id="Group_17" data-name="Group 17">
            <path id="Path_22" data-name="Path 22" d="M410.39,286.608a7.769,7.769,0,0,0-3.445,6.469v1.4h2v-1.4a5.76,5.76,0,0,1,2.555-4.8Z" fill="#fff"/>
          </g>
        </g>
        <g id="Group_20" data-name="Group 20">
          <g id="Group_19" data-name="Group 19">
            <path id="Path_23" data-name="Path 23" d="M449.238,271.66l-17.293,17.378-2.586-2.6,17.293-17.378-1.414-1.421L427.4,285.561l-11.776,3.944a1.007,1.007,0,0,0-.633,1.271,1,1,0,0,0,.242.393l12,12.059a1,1,0,0,0,1.414,0,1.007,1.007,0,0,0,.241-.392L432.819,291l17.833-17.922Zm-21.731,29-2.275-2.288,3.545-5.343-1.664-1.116-3.324,5.011-2.274-2.29L426.5,291.3l-1.11-1.672-5.317,3.562L417.8,290.9l9.877-3.309,3.126,3.141Z" fill="#fff"/>
          </g>
        </g>
        <g id="Group_22" data-name="Group 22">
          <g id="Group_21" data-name="Group 21">
            <path id="Path_24" data-name="Path 24" d="M450.219,303.562l-9.7-2.785a6.3,6.3,0,0,0-3.668.07,25.537,25.537,0,0,0,2.094-10.087,9.512,9.512,0,0,0-.112-1.459l-1.977.312a7.336,7.336,0,0,1,.089,1.147,23.48,23.48,0,0,1-2.445,10.408l-1.45,2.914a1.012,1.012,0,0,0-.1.339l-1.718,15.539a1.845,1.845,0,0,1-3.661.071L425.38,305.35a4.482,4.482,0,0,0-8.87,0l-2.191,14.681a1.845,1.845,0,0,1-3.661-.071l-1.719-15.543a1.023,1.023,0,0,0-.1-.338l-1.45-2.915a23.487,23.487,0,0,1-2.444-10.4,7.3,7.3,0,0,1,10.172-6.743,14.786,14.786,0,0,0,11.656,0l-.787-1.847a12.8,12.8,0,0,1-10.082,0,9.284,9.284,0,0,0-12.209,4.915,9.4,9.4,0,0,0-.75,3.675,25.521,25.521,0,0,0,2.1,10.087,6.3,6.3,0,0,0-3.669-.07l-9.7,2.785a1,1,0,0,0-.731.965v22.108a1,1,0,0,0,1,1.005h58a1,1,0,0,0,1-1.005V304.527A1,1,0,0,0,450.219,303.562Zm-1.274,22.068h-56V305.285l8.975-2.577a4.375,4.375,0,0,1,5.054,2.145l1.7,15.329a3.845,3.845,0,0,0,7.628.148l2.191-14.682a2.481,2.481,0,0,1,4.912,0L425.6,320.33a3.845,3.845,0,0,0,7.628-.148l1.7-15.329a4.376,4.376,0,0,1,5.054-2.145l8.967,2.577Z" fill="#fff"/>
          </g>
        </g>
        <g id="Group_24" data-name="Group 24">
          <g id="Group_23" data-name="Group 23">
            <path id="Path_25" data-name="Path 25" d="M442.252,297.091a29.484,29.484,0,0,0,.693-6.331,13.254,13.254,0,0,0-1.3-5.757l-1.8.868a11.264,11.264,0,0,1,1.1,4.889,27.5,27.5,0,0,1-.858,6.793,1.006,1.006,0,0,0,.723,1.221l9.42,2.7.549-1.932Z" fill="#fff"/>
          </g>
        </g>
        <g id="Group_26" data-name="Group 26">
          <g id="Group_25" data-name="Group 25">
            <path id="Path_26" data-name="Path 26" d="M424.408,278.474a8.79,8.79,0,0,1-6.93,0,13.276,13.276,0,0,0-17.46,7.029,13.41,13.41,0,0,0-1.073,5.257,29.487,29.487,0,0,0,.693,6.337l-8.527,2.445.549,1.932,9.161-2.63.259-.07a1.007,1.007,0,0,0,.724-1.221v0a27.47,27.47,0,0,1-.858-6.79,11.337,11.337,0,0,1,11.3-11.355,11.178,11.178,0,0,1,4.451.919,10.8,10.8,0,0,0,8.5,0,11.277,11.277,0,0,1,5.643-.856l.208-2A13.333,13.333,0,0,0,424.408,278.474Z" fill="#fff"/>
          </g>
        </g>
        <g id="Group_28" data-name="Group 28">
          <g id="Group_27" data-name="Group 27">
            <path id="Path_27" data-name="Path 27" d="M403.928,276.222a1,1,0,0,0-.819-.823,3.878,3.878,0,0,1-3.178-3.194,1,1,0,0,0-1.972,0,3.878,3.878,0,0,1-3.178,3.194,1.006,1.006,0,0,0,0,1.982,3.878,3.878,0,0,1,3.178,3.195,1,1,0,0,0,1.972,0,3.878,3.878,0,0,1,3.178-3.195A1,1,0,0,0,403.928,276.222Zm-4.983,1.6a5.881,5.881,0,0,0-1.428-1.435,5.882,5.882,0,0,0,1.428-1.435,5.881,5.881,0,0,0,1.428,1.435A5.88,5.88,0,0,0,398.945,277.825Z" fill="#fff"/>
          </g>
        </g>
      </g>
    </g>
    <g id="Box_service_3" data-name="Box service 3" transform="translate(1215 2048)">
      <rect id="box_background-4" data-name="box background" width="450" height="436" rx="10" fill="#fff"/>
      <text id="Removal_of_tartar" data-name="Removal of tartar" transform="translate(225 260)" fill="#363636" font-size="22" font-family="RobotoSlab-Regular, Roboto Slab"><tspan x="-90.363" y="0">Removal of tartar</tspan></text>
      <text id="Tartar_is_the_enemy_of_every_human_being_because_through_his_presence_we_have_unpleasant_breath." data-name="Tartar is the enemy of every human being, because through his presence we have unpleasant breath." transform="translate(50 286)" fill="#626262" font-size="18" font-family="Roboto-Regular, Roboto"><tspan x="8.5" y="19">Tartar is the enemy of every human being, </tspan><tspan x="20.167" y="47">because through his presence we have </tspan><tspan x="100.482" y="75">unpleasant breath.</tspan></text>
      <circle id="icon_background-4" data-name="icon background" cx="60" cy="60" r="60" transform="translate(165 70)" fill="#25e6c8"/>
      <g id="Group_16" data-name="Group 16" transform="translate(-195.945 -167.64)">
        <g id="Group_9" data-name="Group 9">
          <g id="Group_8" data-name="Group 8">
            <path id="Path_18" data-name="Path 18" d="M413.573,295.24l-3.117,1.248a2.075,2.075,0,0,1-2.626-2.848l.687-1.374a2,2,0,0,0-.375-2.31l-4.783-4.782,1.293-1.293a1,1,0,0,0,0-1.414l-3.293-3.293.293-.293a1,1,0,0,0,.02-1.394l-9-9.533a1,1,0,0,0-1.727.686v13a1,1,0,0,0,.355.764l3,2.536a1,1,0,0,0,1.352-.057l.293-.3,3.293,3.293a1,1,0,0,0,1.414,0l1.293-1.293,4.783,4.783-.683,1.37a4.071,4.071,0,0,0,5.157,5.6l3.119-1.246Zm-18.335-12.771-.35.35-1.943-1.643v-10.02l6.606,7-.313.313Zm4.707,3.29-2.586-2.586,2.586-2.586,2.586,2.589Z" fill="#fff"/>
          </g>
        </g>
        <g id="Group_11" data-name="Group 11">
          <g id="Group_10" data-name="Group 10">
            <path id="Path_19" data-name="Path 19" d="M450.328,296.716a1,1,0,0,0-1.09.217l-14,14a1,1,0,0,0,0,1.414l.793.793-3.924,3.924a9.66,9.66,0,0,0-5.162-1.424c-4.411,0-8,2.69-8,6s3.589,6,8,6,8-2.691,8-6a4.966,4.966,0,0,0-1.308-3.277l3.808-3.808.793.793a1,1,0,0,0,1.414,0l11-11a1,1,0,0,0,.293-.708v-6A1,1,0,0,0,450.328,296.716Zm-23.383,28.923c-3.252,0-6-1.831-6-4s2.748-4,6-4,6,1.832,6,4S430.2,325.639,426.945,325.639Zm22-22.413-10,10-1.586-1.586,11.586-11.586Z" fill="#fff"/>
          </g>
        </g>
        <g id="Group_13" data-name="Group 13">
          <g id="Group_12" data-name="Group 12">
            <path id="Path_20" data-name="Path 20" d="M425.424,301.434a4.541,4.541,0,0,0-8.958,0l-3.021,18.126a2.489,2.489,0,0,1-4.921-.072L405.936,300.5a1,1,0,0,0-.143-.4l-.556-.891a28.153,28.153,0,0,1-3.61-8.8l-1.953.436a30.165,30.165,0,0,0,3.871,9.43l.442.708,2.56,18.769a4.488,4.488,0,0,0,8.874.133l3.021-18.126a2.539,2.539,0,0,1,5.01,0l2.007,12.041,1.972-.33Z" fill="#fff"/>
          </g>
        </g>
        <g id="Group_15" data-name="Group 15">
          <g id="Group_14" data-name="Group 14">
            <path id="Path_21" data-name="Path 21" d="M430.329,271.64a12.614,12.614,0,0,0-4.969,1.02,11.262,11.262,0,0,1-8.83,0,12.614,12.614,0,0,0-14.327,3.134l1.484,1.346a10.614,10.614,0,0,1,12.055-2.643,13.259,13.259,0,0,0,10.406,0,10.617,10.617,0,0,1,14.8,9.759,28.2,28.2,0,0,1-4.292,14.963l-.556.891a.972.972,0,0,0-.142.4l-.819,6,1.981.271.79-5.787.442-.708a30.2,30.2,0,0,0,4.6-16.029A12.616,12.616,0,0,0,430.329,271.64Z" fill="#fff"/>
          </g>
        </g>
      </g>
    </g>
    <g id="Box_service_2" data-name="Box service 2" transform="translate(735 2048)">
      <rect id="box_background-5" data-name="box background" width="450" height="436" rx="10" fill="#fff"/>
      <text id="Tooth_removal" data-name="Tooth removal" transform="translate(225 260)" fill="#363636" font-size="22" font-family="RobotoSlab-Regular, Roboto Slab"><tspan x="-74.943" y="0">Tooth removal</tspan></text>
      <text id="Any_broken_tooth_is_a_threat_to_the_body_so_this_danger_should_be_removed_from_the_mouth." data-name="Any broken tooth is a threat to the body,
so this danger should be removed
from the mouth." transform="translate(50 286)" fill="#626262" font-size="18" font-family="Roboto-Regular, Roboto"><tspan x="16.432" y="19">Any broken tooth is a threat to the body,</tspan><tspan x="39.824" y="47">so this danger should be removed</tspan><tspan x="110.528" y="75">from the mouth.</tspan></text>
      <circle id="icon_background-5" data-name="icon background" cx="60" cy="60" r="60" transform="translate(165 70)" fill="#2baaec"/>
      <g id="Group_3" data-name="Group 3" transform="translate(-195.946 -167.64)">
        <g id="Group_4" data-name="Group 4">
          <g id="Group_3-2" data-name="Group 3">
            <path id="Path_16" data-name="Path 16" d="M450.218,301.016l-10.652-3a5.22,5.22,0,0,0-3.267.153l.6-1.379,2.111-2.2a25.085,25.085,0,0,0,5.834-9.922,9.236,9.236,0,0,0-6.172-11.547,9.343,9.343,0,0,0-3.713-.351,12.918,12.918,0,0,1-9.638-2.937,9.339,9.339,0,0,0-13.107,1.093,9.208,9.208,0,0,0-1.787,3.255,25,25,0,0,0-.758,11.469l.507,3-2.163,11.393a5.217,5.217,0,0,0-5.689-2.025l-10.653,3a.994.994,0,0,0-.726.956v24.674a1,1,0,0,0,1,.994h58a1,1,0,0,0,1-.994V301.972A1,1,0,0,0,450.218,301.016Zm-40.93,3.027,2.887-15.2a.973.973,0,0,0,0-.349l-.536-3.181a23.011,23.011,0,0,1,.7-10.557,7.322,7.322,0,0,1,11.691-3.412,14.928,14.928,0,0,0,11.146,3.4,7.29,7.29,0,0,1,8.038,6.442,7.2,7.2,0,0,1-.278,2.9,23.125,23.125,0,0,1-5.371,9.132l-2.235,2.334a.967.967,0,0,0-.2.29l-6.175,14.2a1.852,1.852,0,0,1-2.428.955,1.831,1.831,0,0,1-1.093-1.954l2.184-14.526a4.48,4.48,0,0,0-3.121-4.92,4.369,4.369,0,0,0-1.3-.193,4.519,4.519,0,0,0-4.061,2.53l-6.377,13.248a1.851,1.851,0,0,1-2.463.864A1.832,1.832,0,0,1,409.288,304.043Zm15.318-2.92a10.556,10.556,0,0,1-7.516-.321l3.855-8.016a2.491,2.491,0,0,1,3.309-1.173,2.464,2.464,0,0,1,1.391,2.6v-.005Zm-15.661,6.412a3.817,3.817,0,0,0,5.294-.926,3.922,3.922,0,0,0,.334-.574l1.656-3.449a12.254,12.254,0,0,0,8.052.7l-.822,5.455a3.848,3.848,0,0,0,7.336,2.083l2.151-4.941v12.7a3.182,3.182,0,0,1-6.122,1.157l-2.208-5.448a3.971,3.971,0,0,0-7.341,0l-2.208,5.449a3.182,3.182,0,0,1-6.122-1.158V307.535Zm40,18.117h-56V302.723l9.925-2.8a3.212,3.212,0,0,1,3.738,1.62,3.118,3.118,0,0,1,.337,1.4v15.629a5.183,5.183,0,0,0,9.976,1.9l2.208-5.447a1.966,1.966,0,0,1,3.63,0l2.208,5.447a5.184,5.184,0,0,0,9.978-1.9V302.95a3.1,3.1,0,0,1,.336-1.4,3.214,3.214,0,0,1,3.739-1.62l9.924,2.8Z" fill="#fff"/>
          </g>
        </g>
        <g id="Group_6" data-name="Group 6">
          <g id="Group_5" data-name="Group 5">
            <path id="Path_17" data-name="Path 17" d="M418.755,272.418a7.7,7.7,0,0,0-5.179,5.115l-.41,1.326,1.913.582.409-1.325a5.705,5.705,0,0,1,3.841-3.793Z" fill="#fff"/>
          </g>
        </g>
      </g>
    </g>
    <g id="Box_service_1" data-name="Box service 1" transform="translate(255 2048)">
      <rect id="box_background-6" data-name="box background" width="450" height="436" rx="10" fill="#fff"/>
      <text id="Comprehensive_review_of_the_mouth_and_detection_of_broken_teeth_and_other_threats." data-name="Comprehensive review of the mouth
and detection of broken teeth
and other threats." transform="translate(50 286)" fill="#626262" font-size="18" font-family="Roboto-Regular, Roboto"><tspan x="31.07" y="19">Comprehensive review of the mouth</tspan><tspan x="57.6" y="47">and detection of broken teeth</tspan><tspan x="104.208" y="75">and other threats.</tspan></text>
      <text id="Tooth_inspection" data-name="Tooth inspection" transform="translate(225 260)" fill="#363636" font-size="22" font-family="RobotoSlab-Regular, Roboto Slab"><tspan x="-88.269" y="0">Tooth inspection</tspan></text>
      <circle id="icon_background-6" data-name="icon background" cx="60" cy="60" r="60" transform="translate(165 70)" fill="#25e6c8"/>
      <g id="tooth_icon" data-name="tooth icon" transform="translate(-195.944 -167.64)">
        <path id="Path_10" data-name="Path 10" d="M428.945,271.735a9.982,9.982,0,1,0,10,9.982A9.991,9.991,0,0,0,428.945,271.735Zm0,17.968a7.986,7.986,0,1,1,8-7.986A7.994,7.994,0,0,1,428.945,289.7Z" fill="#fff"/>
        <path id="Path_11" data-name="Path 11" d="M450.652,297.981l-9.486-9.468a14.059,14.059,0,1,0-4.187,4.631l9.259,9.243a1,1,0,0,0,1.414,0l3-2.995A1,1,0,0,0,450.652,297.981ZM428.945,293.7a11.979,11.979,0,1,1,12-11.979A12,12,0,0,1,428.945,293.7Zm18,6.573-8.412-8.4a14.211,14.211,0,0,0,1.505-1.663l8.493,8.477Z" fill="#fff"/>
        <path id="Path_12" data-name="Path 12" d="M432.473,303.555l-.377.6a1.048,1.048,0,0,0-.127.307l-4.354,19.119a2.647,2.647,0,0,1-5.192-.15l-3-17.961a4.542,4.542,0,0,0-8.958,0l-3,17.961a2.647,2.647,0,0,1-5.191.15l-4.355-19.126a1.007,1.007,0,0,0-.127-.307l-.376-.6a29.3,29.3,0,0,1-4.472-15.566,12.28,12.28,0,0,1,17.111-11.263,12.451,12.451,0,0,0,3.44.918l.232-1.983a10.372,10.372,0,0,1-2.883-.77,14.265,14.265,0,0,0-19.9,13.1,31.287,31.287,0,0,0,4.776,16.624l.286.457,4.319,18.966a4.647,4.647,0,0,0,9.113-.266l3-17.962a2.543,2.543,0,0,1,5.015,0l3,17.962a4.648,4.648,0,0,0,9.114.266l4.317-18.966.286-.457a31.373,31.373,0,0,0,3.681-8.414l-1.932-.522A29.326,29.326,0,0,1,432.473,303.555Z" fill="#fff"/>
        <path id="Path_13" data-name="Path 13" d="M395.944,287.706h2c0-5.061,4.03-5.973,4.2-6.01l-.2-.977-.2-.978C399.744,280.141,395.944,282.321,395.944,287.706Z" fill="#fff"/>
        <rect id="Rectangle_7" data-name="Rectangle 7" width="2" height="1.996" transform="translate(403.944 279.721)" fill="#fff"/>
        <path id="Path_14" data-name="Path 14" d="M429.236,276.017l-5.5,5.49,1.413,1.412,5.5-5.49Z" fill="#fff"/>
        <path id="Path_15" data-name="Path 15" d="M433.237,279.016l-7,6.987,1.414,1.412,7-6.987Z" fill="#fff"/>
      </g>
    </g>
    <rect id="line" width="450" height="4" transform="translate(735 1974)" fill="#25e6c8"/>
    <text id="Our_services" data-name="Our services" transform="translate(960 1943)" fill="#363636" font-size="40" font-family="RobotoSlab-Regular, Roboto Slab"><tspan x="-118.359" y="0">Our services</tspan></text>
  </g>
</svg>
