<svg xmlns="http://www.w3.org/2000/svg" width="120" height="120" viewBox="0 0 120 120">
  <g id="Group_59" data-name="Group 59" transform="translate(-165 -70)">
    <path id="Subtraction_1" data-name="Subtraction 1" d="M-280-2036a59.625,59.625,0,0,1-23.355-4.715,59.8,59.8,0,0,1-19.072-12.858,59.8,59.8,0,0,1-12.859-19.072A59.626,59.626,0,0,1-340-2096a59.624,59.624,0,0,1,4.715-23.354,59.8,59.8,0,0,1,12.859-19.072,59.8,59.8,0,0,1,19.072-12.858A59.626,59.626,0,0,1-280-2156a59.626,59.626,0,0,1,23.355,4.715,59.8,59.8,0,0,1,19.071,12.858,59.8,59.8,0,0,1,12.858,19.072A59.625,59.625,0,0,1-220-2096a59.627,59.627,0,0,1-4.715,23.355,59.8,59.8,0,0,1-12.858,19.072,59.8,59.8,0,0,1-19.071,12.858A59.624,59.624,0,0,1-280-2036Zm-15.719-83.913a14.266,14.266,0,0,0-13.126,8.638,14.15,14.15,0,0,0-1.156,5.616,31.254,31.254,0,0,0,4.776,16.624l.286.457,4.319,18.966a4.616,4.616,0,0,0,4.525,3.613,4.672,4.672,0,0,0,1.032-.116,4.623,4.623,0,0,0,3.555-3.762l3-17.962a2.534,2.534,0,0,1,2.507-2.118,2.58,2.58,0,0,1,.422.035,2.543,2.543,0,0,1,2.087,2.083l3,17.962a4.625,4.625,0,0,0,4.578,3.877,4.7,4.7,0,0,0,.766-.063,4.629,4.629,0,0,0,3.77-3.549l4.316-18.966.286-.457a31.341,31.341,0,0,0,3.681-8.414l-1.932-.522a29.276,29.276,0,0,1-3.445,7.886l-.377.6a1.006,1.006,0,0,0-.127.307l-4.354,19.119a2.665,2.665,0,0,1-2.58,2.06,2.66,2.66,0,0,1-.585-.065,2.639,2.639,0,0,1-2.027-2.144l-3-17.961a4.52,4.52,0,0,0-4.472-3.787,4.6,4.6,0,0,0-.754.063,4.54,4.54,0,0,0-3.732,3.724l-3,17.961a2.634,2.634,0,0,1-2.606,2.209,2.7,2.7,0,0,1-.437-.036,2.636,2.636,0,0,1-2.147-2.023l-4.355-19.126a1.012,1.012,0,0,0-.127-.307l-.376-.6A29.264,29.264,0,0,1-308-2105.659a12.167,12.167,0,0,1,3.6-8.665,12.207,12.207,0,0,1,8.68-3.589,12.241,12.241,0,0,1,4.835.99,12.4,12.4,0,0,0,3.44.918l.232-1.983a10.377,10.377,0,0,1-2.884-.769A14.2,14.2,0,0,0-295.719-2119.913Zm31.753,19.417h0l9.259,9.242a1,1,0,0,0,.706.292,1,1,0,0,0,.707-.292l3-3a.992.992,0,0,0,.293-.707.99.99,0,0,0-.293-.7l-9.486-9.468a13.91,13.91,0,0,0,1.261-10.656,13.932,13.932,0,0,0-6.664-8.431,14.073,14.073,0,0,0-6.845-1.787,14.081,14.081,0,0,0-12.277,7.182,13.912,13.912,0,0,0-1.259,10.654,13.937,13.937,0,0,0,6.664,8.431,14.1,14.1,0,0,0,6.857,1.785,14,14,0,0,0,8.076-2.547Zm-35.234-13.4c-2.006.4-5.8,2.583-5.8,7.965h2a6.058,6.058,0,0,1,2.036-4.889,5.428,5.428,0,0,1,2.164-1.121l-.2-.978-.2-.978Zm2.2-.02v2h2v-2Zm43,20.548h0l-8.412-8.4a14.279,14.279,0,0,0,1.5-1.663l8.493,8.477-1.585,1.582Zm-18-6.573a11.952,11.952,0,0,1-8.482-3.513,11.905,11.905,0,0,1-3.519-8.466,11.888,11.888,0,0,1,3.515-8.47A11.934,11.934,0,0,1-272-2123.9a11.932,11.932,0,0,1,8.485,3.509,11.889,11.889,0,0,1,3.515,8.47,11.891,11.891,0,0,1-3.515,8.47A11.932,11.932,0,0,1-272-2099.944Zm0-21.961a10,10,0,0,0-10,9.982,10,10,0,0,0,10,9.982,10,10,0,0,0,10-9.982A10.017,10.017,0,0,0-272-2121.9Zm0,17.968a8,8,0,0,1-8-7.986,8,8,0,0,1,8-7.986,8,8,0,0,1,8,7.986A8.013,8.013,0,0,1-272-2103.937Zm4.291-10.687-7,6.987,1.414,1.411,7-6.987-1.415-1.411h0Zm-4-3-5.5,5.489,1.413,1.412,5.5-5.49-1.414-1.411Z" transform="translate(505 2226)" fill="#25e6c8"/>
  </g>
</svg>
